#N canvas 903 192 1027 825 10;
#X obj 112 524 dac~;
#N canvas 654 504 542 477 delay 0;
#X obj 68 103 inlet~;
#X obj 53 230 outlet~;
#X floatatom 142 47 5 0 0 0 - - -;
#X floatatom 9 -52 5 0 0 0 - - -;
#X obj 9 -6 sig~;
#X obj 9 75 *~;
#X obj 119 103 r cutoff;
#X obj 142 19 r feedback;
#N canvas 799 510 450 300 convertPitchCo 0;
#X obj 98 46 inlet;
#X obj 110 208 outlet;
#X obj 110 150 pow;
#X obj 98 102 t b f;
#X msg 98 125 2;
#X obj 110 175 * 10;
#X obj 98 77 * 11;
#X connect 0 0 6 0;
#X connect 2 0 5 0;
#X connect 3 0 4 0;
#X connect 3 1 2 1;
#X connect 4 0 2 0;
#X connect 5 0 1 0;
#X connect 6 0 3 0;
#X restore 119 130 pd convertPitchCo;
#X obj 9 -136 r time;
#X obj 9 -106 * 1000;
#X obj 9 -82 + 60;
#X obj 53 174 lop~;
#X obj 63 202 delwrite~ delbuffer 1100;
#X obj 53 143 +~;
#X obj 9 47 vd~ delbuffer;
#X connect 0 0 14 1;
#X connect 2 0 5 1;
#X connect 3 0 4 0;
#X connect 4 0 15 0;
#X connect 5 0 14 0;
#X connect 6 0 8 0;
#X connect 7 0 2 0;
#X connect 8 0 12 1;
#X connect 9 0 10 0;
#X connect 10 0 11 0;
#X connect 11 0 3 0;
#X connect 12 0 1 0;
#X connect 12 0 13 0;
#X connect 14 0 12 0;
#X connect 15 0 5 0;
#X restore 112 430 pd delay;
#N canvas 1110 364 514 639 triangle 0;
#X obj 32 -57 inlet;
#X obj 32 162 outlet~;
#X obj 32 -16 phasor~;
#X obj 53 12 *~ -1;
#X obj 53 38 +~ 1;
#X obj 32 64 min~;
#X obj 32 93 *~ 14;
#X obj 32 118 -~ 5;
#X connect 0 0 2 0;
#X connect 2 0 5 0;
#X connect 2 0 3 0;
#X connect 3 0 4 0;
#X connect 4 0 5 1;
#X connect 5 0 6 0;
#X connect 6 0 7 0;
#X connect 7 0 1 0;
#X restore 222 103 pd triangle;
#X obj 222 206 *~;
#X obj 237 178 r interval;
#X obj 112 495 hip~ 5;
#X obj 112 464 *~ 0.2;
#X msg 187 301 1 10;
#X obj 187 277 r start;
#X obj 244 277 r stop;
#X obj 112 397 *~;
#X obj 187 342 line~;
#N canvas 1107 503 450 300 square 0;
#X obj 38 36 inlet rate;
#X obj 38 218 outlet~;
#X obj 38 64 osc~;
#X obj 38 92 *~ 8192;
#X obj 38 120 clip~ -1 1;
#X obj 38 145 *~ 3.5;
#X obj 38 171 -~ 1.5;
#X connect 0 0 2 0;
#X connect 2 0 3 0;
#X connect 3 0 4 0;
#X connect 4 0 5 0;
#X connect 5 0 6 0;
#X connect 6 0 1 0;
#X restore 303 103 pd square;
#N canvas 761 286 521 523 select~ 0;
#X obj 72 214 inlet~;
#X obj 124 214 inlet~;
#X obj 252 49 inlet;
#X obj 109 374 outlet~;
#X obj 57 303 *~;
#X text 296 47 1 left in \, 0 right in;
#X obj 252 91 select 1;
#X obj 109 302 *~;
#X msg 221 123 1;
#X msg 252 123 0;
#X msg 297 150 0;
#X msg 330 150 1;
#X obj 171 47 loadbang;
#X msg 171 74 1;
#X connect 0 0 4 1;
#X connect 1 0 7 1;
#X connect 2 0 6 0;
#X connect 4 0 3 0;
#X connect 6 0 8 0;
#X connect 6 0 9 0;
#X connect 6 1 10 0;
#X connect 6 1 11 0;
#X connect 7 0 3 0;
#X connect 8 0 4 0;
#X connect 9 0 7 0;
#X connect 10 0 4 0;
#X connect 11 0 7 0;
#X connect 12 0 13 0;
#X connect 13 0 6 0;
#X restore 222 146 pd select~;
#X obj 112 282 *~;
#X msg 157 202 2;
#X obj 157 178 loadbang;
#X obj 222 27 pow 4;
#X obj 189 239 pow~;
#X obj 222 3 r rate;
#X obj 450 469 vsl 15 128 0 1 0 0 empty empty empty 0 -9 0 10 -262144
-1 -1 0 1;
#X obj 450 641 s rate;
#X floatatom 450 609 5 0 0 0 - - -;
#X obj 501 469 vsl 15 128 0 1 0 0 empty empty empty 0 -9 0 10 -262144
-1 -1 0 1;
#X floatatom 501 609 5 0 0 0 - - -;
#X obj 501 641 s interval;
#X floatatom 433 718 5 0 0 0 - - -;
#X obj 433 743 s pitch;
#N canvas 915 330 704 669 saw~ 0;
#X floatatom 221 183 0 0 0 0 - - -;
#X obj 73 407 -~;
#X obj 221 257 /~;
#X obj 228 234 clip~ 1 999999;
#X obj 96 215 phasor~;
#X obj 108 277 *~;
#X obj 108 301 clip~ -0.5 0.5;
#X floatatom 221 135 0 0 0 0 - - -;
#X obj 221 159 mtof;
#X obj 221 87 loadbang;
#X obj 108 325 *~ 1000;
#X obj 108 349 +~ 501;
#X obj 96 239 -~ 0.5;
#X obj 108 373 tabread4~ \$0-transition;
#X obj 221 206 * 0.4;
#X msg 221 111 136.766;
#N canvas 151 52 754 678 transition-table 0;
#X text 242 138 back the phase up one sample;
#X obj 204 259 cos~;
#X obj 156 254 cos~;
#X msg 100 323 bang;
#X msg 13 195 \; pd dsp 1;
#X msg 237 169 -0.0005;
#X obj 204 233 *~ 3;
#X obj 204 284 *~ 0.33333;
#X obj 156 282 *~ -1;
#X msg 100 150 bang;
#X obj 155 193 phasor~ 22.05;
#X obj 156 315 *~ 0.75;
#X obj 156 342 tabwrite~ \$0-transition;
#X obj 100 128 loadbang;
#X text 292 216 twice the table length;
#X text 280 193 period is 2000 samples \,;
#X text 80 369 This one is used - first and third harmonics only.;
#N canvas 0 22 450 300 (subpatch) 0;
#X array \$0-transition 1002 float 0;
#X coords 0 1 1002 -1 200 140 1;
#X restore 539 32 graph;
#X text 537 179 ----- 1002 samples ----;
#X text 24 27 This network puts a half cycle of a band-limited square
wave into the table "array1.";
#X text 22 64 Logically the half-cycle is in samples 1 through 1000
\; samples 0 and 1001 are provided so that the 4-point interpolation
will work everywhere.;
#X connect 1 0 7 0;
#X connect 2 0 8 0;
#X connect 3 0 12 0;
#X connect 5 0 10 1;
#X connect 6 0 1 0;
#X connect 7 0 11 0;
#X connect 8 0 11 0;
#X connect 9 0 5 0;
#X connect 9 0 4 0;
#X connect 9 0 3 0;
#X connect 10 0 2 0;
#X connect 10 0 6 0;
#X connect 11 0 12 0;
#X connect 13 0 9 0;
#X restore 202 485 pd transition-table;
#X obj 43 32 inlet~;
#X obj 63 527 outlet~;
#X connect 0 0 14 0;
#X connect 1 0 18 0;
#X connect 2 0 5 1;
#X connect 3 0 2 1;
#X connect 4 0 12 0;
#X connect 5 0 6 0;
#X connect 6 0 10 0;
#X connect 7 0 8 0;
#X connect 8 0 0 0;
#X connect 9 0 15 0;
#X connect 10 0 11 0;
#X connect 11 0 13 0;
#X connect 12 0 5 0;
#X connect 12 0 1 1;
#X connect 13 0 1 0;
#X connect 14 0 2 0;
#X connect 15 0 7 0;
#X connect 17 0 4 0;
#X connect 17 0 3 0;
#X restore 112 331 pd saw~;
#N canvas 593 475 450 300 convertPitch 0;
#X obj 98 46 inlet;
#X obj 110 208 outlet;
#X obj 98 77 * 7.05;
#X obj 110 150 pow;
#X obj 98 102 t b f;
#X msg 98 125 2;
#X obj 110 175 * 35;
#X connect 0 0 2 0;
#X connect 2 0 4 0;
#X connect 3 0 6 0;
#X connect 4 0 5 0;
#X connect 4 1 3 1;
#X connect 5 0 3 0;
#X connect 6 0 1 0;
#X restore 112 50 pd convertPitch;
#X obj 436 696 hsl 128 15 0 1 0 0 empty empty empty -2 -8 0 10 -262144
-1 -1 5200 0;
#X obj 576 469 vsl 15 128 0 1 0 0 empty empty empty 0 -9 0 10 -262144
-1 -1 12700 1;
#X floatatom 576 609 5 0 0 0 - - -;
#X obj 576 641 s cutoff;
#X obj 639 469 vsl 15 128 0 1 0 0 empty empty empty 0 -9 0 10 -262144
-1 -1 0 1;
#X floatatom 639 609 5 0 0 0 - - -;
#X obj 639 641 s time;
#X obj 690 469 vsl 15 128 0 1 0 0 empty empty empty 0 -9 0 10 -262144
-1 -1 0 1;
#X floatatom 690 609 5 0 0 0 - - -;
#X obj 690 641 s feedback;
#X obj 112 16 r pitch;
#X obj 222 51 * 40;
#X obj 222 74 + 0.016;
#X msg 402 103 1;
#X msg 434 103 0;
#X obj 402 71 r triangle;
#X obj 470 71 r square;
#X obj 112 173 vline~;
#X msg 244 300 0 10;
#X obj 112 144 pack 0 95;
#N canvas 593 474 450 300 convertPitch 0;
#X obj 98 46 inlet;
#X obj 110 208 outlet;
#X obj 98 77 * 7.05;
#X obj 110 150 pow;
#X obj 98 102 t b f;
#X msg 98 125 2;
#X obj 110 175 * 35;
#X connect 0 0 2 0;
#X connect 2 0 4 0;
#X connect 3 0 6 0;
#X connect 4 0 5 0;
#X connect 4 1 3 1;
#X connect 5 0 3 0;
#X connect 6 0 1 0;
#X restore 7 50 pd convertPitch;
#X obj 7 16 r newPitch;
#X connect 1 0 6 0;
#X connect 2 0 13 0;
#X connect 3 0 18 1;
#X connect 4 0 3 1;
#X connect 5 0 0 0;
#X connect 5 0 0 1;
#X connect 6 0 5 0;
#X connect 7 0 11 0;
#X connect 8 0 7 0;
#X connect 9 0 48 0;
#X connect 10 0 1 0;
#X connect 11 0 10 1;
#X connect 12 0 13 1;
#X connect 13 0 3 0;
#X connect 14 0 28 0;
#X connect 15 0 18 0;
#X connect 16 0 15 0;
#X connect 17 0 41 0;
#X connect 18 0 14 1;
#X connect 19 0 17 0;
#X connect 20 0 22 0;
#X connect 22 0 21 0;
#X connect 23 0 24 0;
#X connect 24 0 25 0;
#X connect 26 0 27 0;
#X connect 28 0 10 0;
#X connect 29 0 49 0;
#X connect 30 0 26 0;
#X connect 31 0 32 0;
#X connect 32 0 33 0;
#X connect 34 0 35 0;
#X connect 35 0 36 0;
#X connect 37 0 38 0;
#X connect 38 0 39 0;
#X connect 40 0 29 0;
#X connect 41 0 42 0;
#X connect 42 0 2 0;
#X connect 42 0 12 0;
#X connect 43 0 13 2;
#X connect 44 0 13 2;
#X connect 45 0 43 0;
#X connect 46 0 44 0;
#X connect 47 0 14 0;
#X connect 48 0 11 0;
#X connect 49 0 47 0;
#X connect 50 0 47 0;
#X connect 51 0 50 0;
